<?xml version="1.0" encoding="UTF-8" standalone="no"?>
<!-- Generator: Adobe Illustrator 20.0.0, SVG Export Plug-In . SVG Version: 6.00 Build 0)  -->

<svg
   xmlns:dc="http://purl.org/dc/elements/1.1/"
   xmlns:cc="http://creativecommons.org/ns#"
   xmlns:rdf="http://www.w3.org/1999/02/22-rdf-syntax-ns#"
   xmlns:svg="http://www.w3.org/2000/svg"
   xmlns="http://www.w3.org/2000/svg"
   xmlns:sodipodi="http://sodipodi.sourceforge.net/DTD/sodipodi-0.dtd"
   xmlns:inkscape="http://www.inkscape.org/namespaces/inkscape"
   version="1.1"
   x="0px"
   y="0px"
   viewBox="0 0 32 32"
   xml:space="preserve"
   id="svg12"
   sodipodi:docname="email.svg"
   inkscape:version="0.92.4 5da689c313, 2019-01-14"
   width="32"
   height="32"><metadata
   id="metadata18"><rdf:RDF><cc:Work
       rdf:about=""><dc:format>image/svg+xml</dc:format><dc:type
         rdf:resource="http://purl.org/dc/dcmitype/StillImage" /><dc:title></dc:title></cc:Work></rdf:RDF></metadata><defs
   id="defs16" /><sodipodi:namedview
   pagecolor="#ffffff"
   bordercolor="#666666"
   borderopacity="1"
   objecttolerance="10"
   gridtolerance="10"
   guidetolerance="10"
   inkscape:pageopacity="0"
   inkscape:pageshadow="2"
   inkscape:window-width="3840"
   inkscape:window-height="2114"
   id="namedview14"
   showgrid="true"
   inkscape:zoom="64"
   inkscape:cx="27.185876"
   inkscape:cy="16.304823"
   inkscape:window-x="0"
   inkscape:window-y="22"
   inkscape:window-maximized="0"
   inkscape:current-layer="svg12"
   inkscape:pagecheckerboard="true"
   units="px"
   showguides="true"
   inkscape:guide-bbox="true"><inkscape:grid
     type="xygrid"
     id="grid3734"
     spacingx="1"
     spacingy="1"
     empspacing="8"
     originx="0"
     originy="0"
     snapvisiblegridlinesonly="false" /></sodipodi:namedview>
<style
   type="text/css"
   id="style2">
	.st0{opacity:0.15;fill:#292F33;}
	.st1{fill:#FFFFFF;}
</style>


<path
   style="fill:#e9e9e9;fill-opacity:1;stroke:none;stroke-width:2;stroke-linecap:round;stroke-linejoin:round;stroke-miterlimit:4;stroke-dasharray:none;stroke-opacity:1;paint-order:normal"
   d="M 6,6 C 3.784,6 2,7.784 2,10 v 12 c 0,2.216 1.784,4 4,4 h 20 c 2.216,0 4,-1.784 4,-4 V 10 C 30,7.784 28.216,6 26,6 Z m 0.4394531,2.7363281 c 0.3523356,-0.00784 0.6988321,0.090863 0.9941407,0.2832029 L 16,14.429688 24.566406,9.019531 c 1.973958,-1.2447913 3.841146,1.716147 1.867188,2.960938 l -9.5,6 c -0.570417,0.359731 -1.296771,0.359731 -1.867188,0 l -9.4999998,-6 C 4.0732548,11.070202 4.6911259,8.7742646 6.4394531,8.7363281 Z"
   id="rect4557"
   inkscape:connector-curvature="0"
   sodipodi:nodetypes="sssssssssccccccccc" /></svg>